REM MD5 819ffd2e17e2daa26de400964502aede
FILE "College Slam (USA).bin" BINARY
  TRACK 01 MODE2/2352
    INDEX 01 00:00:00
  TRACK 02 AUDIO
    INDEX 00 10:32:64
    INDEX 01 10:34:64
  TRACK 03 AUDIO
    INDEX 00 15:01:67
    INDEX 01 15:03:67
  TRACK 04 AUDIO
    INDEX 00 17:46:21
    INDEX 01 17:48:21
  TRACK 05 AUDIO
    INDEX 00 22:01:10
    INDEX 01 22:03:10
  TRACK 06 AUDIO
    INDEX 00 24:53:73
    INDEX 01 24:55:73
  TRACK 07 AUDIO
    INDEX 00 28:36:54
    INDEX 01 28:38:54
  TRACK 08 AUDIO
    INDEX 00 28:46:68
    INDEX 01 28:48:68
  TRACK 09 AUDIO
    INDEX 00 28:58:43
    INDEX 01 29:00:43
  TRACK 10 AUDIO
    INDEX 00 29:09:37
    INDEX 01 29:11:37
  TRACK 11 AUDIO
    INDEX 00 29:19:42
    INDEX 01 29:21:42
  TRACK 12 AUDIO
    INDEX 00 29:38:49
    INDEX 01 29:40:49
  TRACK 13 AUDIO
    INDEX 00 29:49:43
    INDEX 01 29:51:43
  TRACK 14 AUDIO
    INDEX 00 29:58:34
    INDEX 01 30:00:34
  TRACK 15 AUDIO
    INDEX 00 30:10:09
    INDEX 01 30:12:09
  TRACK 16 AUDIO
    INDEX 00 30:21:19
    INDEX 01 30:23:19
  TRACK 17 AUDIO
    INDEX 00 30:32:69
    INDEX 01 30:34:69
  TRACK 18 AUDIO
    INDEX 00 30:42:71
    INDEX 01 30:44:71
  TRACK 19 AUDIO
    INDEX 00 30:52:31
    INDEX 01 30:54:31
  TRACK 20 AUDIO
    INDEX 00 30:59:23
    INDEX 01 31:01:23
  TRACK 21 AUDIO
    INDEX 00 31:16:69
    INDEX 01 31:18:69
  TRACK 22 AUDIO
    INDEX 00 31:27:63
    INDEX 01 31:29:63
  TRACK 23 AUDIO
    INDEX 00 31:39:38
    INDEX 01 31:41:38
  TRACK 24 AUDIO
    INDEX 00 31:48:44
    INDEX 01 31:50:44
  TRACK 25 AUDIO
    INDEX 00 31:58:13
    INDEX 01 32:00:13
  TRACK 26 AUDIO
    INDEX 00 32:08:35
    INDEX 01 32:10:35
  TRACK 27 AUDIO
    INDEX 00 32:18:23
    INDEX 01 32:20:23
  TRACK 28 AUDIO
    INDEX 00 32:27:54
    INDEX 01 32:29:54
  TRACK 29 AUDIO
    INDEX 00 32:38:16
    INDEX 01 32:40:16
  TRACK 30 AUDIO
    INDEX 00 32:48:08
    INDEX 01 32:50:08
  TRACK 31 AUDIO
    INDEX 00 32:58:22
    INDEX 01 33:00:22
  TRACK 32 AUDIO
    INDEX 00 33:07:53
    INDEX 01 33:09:53
  TRACK 33 AUDIO
    INDEX 00 33:17:53
    INDEX 01 33:19:53
  TRACK 34 AUDIO
    INDEX 00 33:28:39
    INDEX 01 33:30:39
  TRACK 35 AUDIO
    INDEX 00 33:47:46
    INDEX 01 33:49:46
  TRACK 36 AUDIO
    INDEX 00 33:56:73
    INDEX 01 33:58:73
  TRACK 37 AUDIO
    INDEX 00 34:07:68
    INDEX 01 34:09:68
  TRACK 38 AUDIO
    INDEX 00 34:18:62
    INDEX 01 34:20:62
  TRACK 39 AUDIO
    INDEX 00 34:29:20
    INDEX 01 34:31:20
  TRACK 40 AUDIO
    INDEX 00 34:39:14
    INDEX 01 34:41:14
  TRACK 41 AUDIO
    INDEX 00 34:50:22
    INDEX 01 34:52:22
  TRACK 42 AUDIO
    INDEX 00 35:00:20
    INDEX 01 35:02:20
  TRACK 43 AUDIO
    INDEX 00 35:11:40
    INDEX 01 35:13:40
  TRACK 44 AUDIO
    INDEX 00 35:22:26
    INDEX 01 35:24:26
  TRACK 45 AUDIO
    INDEX 00 35:38:06
    INDEX 01 35:40:06
  TRACK 46 AUDIO
    INDEX 00 35:48:38
    INDEX 01 35:50:38
  TRACK 47 AUDIO
    INDEX 00 35:59:44
    INDEX 01 36:01:44
  TRACK 48 AUDIO
    INDEX 00 36:10:43
    INDEX 01 36:12:43
  TRACK 49 AUDIO
    INDEX 00 36:20:43
    INDEX 01 36:22:43
  TRACK 50 AUDIO
    INDEX 00 36:31:34
    INDEX 01 36:33:34
  TRACK 51 AUDIO
    INDEX 00 36:42:28
    INDEX 01 36:44:28
  TRACK 52 AUDIO
    INDEX 00 36:50:24
    INDEX 01 36:52:24
  TRACK 53 AUDIO
    INDEX 00 36:57:40
    INDEX 01 36:59:40
  TRACK 54 AUDIO
    INDEX 00 37:11:25
    INDEX 01 37:13:25
  TRACK 55 AUDIO
    INDEX 00 37:38:35
    INDEX 01 37:40:35
  TRACK 56 AUDIO
    INDEX 00 41:30:43
    INDEX 01 41:32:43
REM LEADOUT 44:32:68
